<?xml version="1.0" encoding="utf-8" standalone="no"?>
<!DOCTYPE svg PUBLIC "-//W3C//DTD SVG 1.1//EN"
  "http://www.w3.org/Graphics/SVG/1.1/DTD/svg11.dtd">
<svg xmlns:xlink="http://www.w3.org/1999/xlink" width="431.82pt" height="217.872pt" viewBox="0 0 431.82 217.872" xmlns="http://www.w3.org/2000/svg" version="1.1">
 <metadata>
  <rdf:RDF xmlns:dc="http://purl.org/dc/elements/1.1/" xmlns:cc="http://creativecommons.org/ns#" xmlns:rdf="http://www.w3.org/1999/02/22-rdf-syntax-ns#">
   <cc:Work>
    <dc:type rdf:resource="http://purl.org/dc/dcmitype/StillImage"/>
    <dc:date>2026-07-16T22:06:28.698513</dc:date>
    <dc:format>image/svg+xml</dc:format>
    <dc:creator>
     <cc:Agent>
      <dc:title>Matplotlib v3.10.8, https://matplotlib.org/</dc:title>
     </cc:Agent>
    </dc:creator>
   </cc:Work>
  </rdf:RDF>
 </metadata>
 <defs>
  <style type="text/css">*{stroke-linejoin: round; stroke-linecap: butt}</style>
 </defs>
 <g id="figure_1">
  <g id="patch_1">
   <path d="M 0 217.872 
L 431.82 217.872 
L 431.82 0 
L 0 0 
L 0 217.872 
z
" style="fill: none; opacity: 0"/>
  </g>
  <g id="axes_1">
   <g id="text_1">
    <g id="patch_2">
     <path d="M 16.9 91.324 
L 346.7 91.324 
L 346.7 33.524 
L 16.9 33.524 
z
" style="fill: #09f29e"/>
    </g>
    <!-- H I Y A ! -->
    <g style="fill: #0048ff" transform="translate(28.8 79.424) scale(0.34 -0.34)">
     <defs>
      <path id="PressStart2P-Regular-48" d="M 0 800 
L 0 6400 
L 1600 6400 
L 1600 4000 
L 4000 4000 
L 4000 6400 
L 5600 6400 
L 5600 800 
L 4000 800 
L 4000 3200 
L 1600 3200 
L 1600 800 
L 0 800 
z
" transform="scale(0.015625)"/>
      <path id="PressStart2P-Regular-20" transform="scale(0.015625)"/>
      <path id="PressStart2P-Regular-49" d="M 800 800 
L 800 1600 
L 2400 1600 
L 2400 5600 
L 800 5600 
L 800 6400 
L 5600 6400 
L 5600 5600 
L 4000 5600 
L 4000 1600 
L 5600 1600 
L 5600 800 
L 800 800 
z
" transform="scale(0.015625)"/>
      <path id="PressStart2P-Regular-59" d="M 2400 800 
L 2400 3200 
L 1600 3200 
L 1600 4000 
L 800 4000 
L 800 6400 
L 2400 6400 
L 2400 4000 
L 4000 4000 
L 4000 6400 
L 5600 6400 
L 5600 4000 
L 4800 4000 
L 4800 3200 
L 4000 3200 
L 4000 800 
L 2400 800 
z
" transform="scale(0.015625)"/>
      <path id="PressStart2P-Regular-41" d="M 0 800 
L 0 4800 
L 800 4800 
L 800 5600 
L 1600 5600 
L 1600 6400 
L 4000 6400 
L 4000 5600 
L 4800 5600 
L 4800 4800 
L 5600 4800 
L 5600 800 
L 4000 800 
L 4000 2400 
L 1600 2400 
L 1600 800 
L 0 800 
z
M 1600 3200 
L 4000 3200 
L 4000 4800 
L 3200 4800 
L 3200 5600 
L 2400 5600 
L 2400 4800 
L 1600 4800 
L 1600 3200 
z
" transform="scale(0.015625)"/>
      <path id="PressStart2P-Regular-21" d="M 1600 2400 
L 1600 6400 
L 4000 6400 
L 4000 4000 
L 3200 4000 
L 3200 2400 
L 1600 2400 
z
M 1600 800 
L 1600 1600 
L 3200 1600 
L 3200 800 
L 1600 800 
z
" transform="scale(0.015625)"/>
     </defs>
     <use xlink:href="#PressStart2P-Regular-48"/>
     <use xlink:href="#PressStart2P-Regular-20" transform="translate(99.999985 0)"/>
     <use xlink:href="#PressStart2P-Regular-49" transform="translate(199.999969 0)"/>
     <use xlink:href="#PressStart2P-Regular-20" transform="translate(299.999954 0)"/>
     <use xlink:href="#PressStart2P-Regular-59" transform="translate(399.999939 0)"/>
     <use xlink:href="#PressStart2P-Regular-20" transform="translate(499.999924 0)"/>
     <use xlink:href="#PressStart2P-Regular-41" transform="translate(599.999908 0)"/>
     <use xlink:href="#PressStart2P-Regular-20" transform="translate(699.999893 0)"/>
     <use xlink:href="#PressStart2P-Regular-21" transform="translate(799.999878 0)"/>
    </g>
   </g>
   <g id="text_2">
    <g id="patch_3">
     <path d="M 16.9 137.836 
L 210.7 137.836 
L 210.7 80.036 
L 16.9 80.036 
z
" style="fill: #09f29e"/>
    </g>
    <!-- I ' M -->
    <g style="fill: #0048ff" transform="translate(28.8 125.936) scale(0.34 -0.34)">
     <defs>
      <path id="PressStart2P-Regular-27" d="M 1600 4000 
L 1600 6400 
L 3200 6400 
L 3200 4000 
L 1600 4000 
z
" transform="scale(0.015625)"/>
      <path id="PressStart2P-Regular-4d" d="M 0 800 
L 0 6400 
L 1600 6400 
L 1600 5600 
L 2400 5600 
L 2400 4800 
L 3200 4800 
L 3200 5600 
L 4000 5600 
L 4000 6400 
L 5600 6400 
L 5600 800 
L 4000 800 
L 4000 4000 
L 3200 4000 
L 3200 2400 
L 2400 2400 
L 2400 4000 
L 1600 4000 
L 1600 800 
L 0 800 
z
" transform="scale(0.015625)"/>
     </defs>
     <use xlink:href="#PressStart2P-Regular-49"/>
     <use xlink:href="#PressStart2P-Regular-20" transform="translate(99.999985 0)"/>
     <use xlink:href="#PressStart2P-Regular-27" transform="translate(199.999969 0)"/>
     <use xlink:href="#PressStart2P-Regular-20" transform="translate(299.999954 0)"/>
     <use xlink:href="#PressStart2P-Regular-4d" transform="translate(399.999939 0)"/>
    </g>
   </g>
   <g id="text_3">
    <g id="patch_4">
     <path d="M 16.9 184.348 
L 414.7 184.348 
L 414.7 126.548 
L 16.9 126.548 
z
" style="fill: #09f29e"/>
    </g>
    <!-- C O O P E R -->
    <g style="fill: #0048ff" transform="translate(28.8 172.448) scale(0.34 -0.34)">
     <defs>
      <path id="PressStart2P-Regular-43" d="M 1600 800 
L 1600 1600 
L 800 1600 
L 800 2400 
L 0 2400 
L 0 4800 
L 800 4800 
L 800 5600 
L 1600 5600 
L 1600 6400 
L 4800 6400 
L 4800 5600 
L 5600 5600 
L 5600 4800 
L 4000 4800 
L 4000 5600 
L 2400 5600 
L 2400 4800 
L 1600 4800 
L 1600 2400 
L 2400 2400 
L 2400 1600 
L 4000 1600 
L 4000 2400 
L 5600 2400 
L 5600 1600 
L 4800 1600 
L 4800 800 
L 1600 800 
z
" transform="scale(0.015625)"/>
      <path id="PressStart2P-Regular-4f" d="M 800 800 
L 800 1600 
L 0 1600 
L 0 5600 
L 800 5600 
L 800 6400 
L 4800 6400 
L 4800 5600 
L 5600 5600 
L 5600 1600 
L 4800 1600 
L 4800 800 
L 800 800 
z
M 1600 1600 
L 4000 1600 
L 4000 5600 
L 1600 5600 
L 1600 1600 
z
" transform="scale(0.015625)"/>
      <path id="PressStart2P-Regular-50" d="M 0 800 
L 0 6400 
L 4800 6400 
L 4800 5600 
L 5600 5600 
L 5600 3200 
L 4800 3200 
L 4800 2400 
L 1600 2400 
L 1600 800 
L 0 800 
z
M 1600 3200 
L 4000 3200 
L 4000 5600 
L 1600 5600 
L 1600 3200 
z
" transform="scale(0.015625)"/>
      <path id="PressStart2P-Regular-45" d="M 0 800 
L 0 6400 
L 5600 6400 
L 5600 5600 
L 1600 5600 
L 1600 4000 
L 4800 4000 
L 4800 3200 
L 1600 3200 
L 1600 1600 
L 5600 1600 
L 5600 800 
L 0 800 
z
" transform="scale(0.015625)"/>
      <path id="PressStart2P-Regular-52" d="M 0 800 
L 0 6400 
L 4800 6400 
L 4800 5600 
L 5600 5600 
L 5600 3200 
L 4000 3200 
L 4000 2400 
L 4800 2400 
L 4800 1600 
L 5600 1600 
L 5600 800 
L 3200 800 
L 3200 1600 
L 2400 1600 
L 2400 2400 
L 1600 2400 
L 1600 800 
L 0 800 
z
M 1600 3200 
L 3200 3200 
L 3200 4000 
L 4000 4000 
L 4000 5600 
L 1600 5600 
L 1600 3200 
z
" transform="scale(0.015625)"/>
     </defs>
     <use xlink:href="#PressStart2P-Regular-43"/>
     <use xlink:href="#PressStart2P-Regular-20" transform="translate(99.999985 0)"/>
     <use xlink:href="#PressStart2P-Regular-4f" transform="translate(199.999969 0)"/>
     <use xlink:href="#PressStart2P-Regular-20" transform="translate(299.999954 0)"/>
     <use xlink:href="#PressStart2P-Regular-4f" transform="translate(399.999939 0)"/>
     <use xlink:href="#PressStart2P-Regular-20" transform="translate(499.999924 0)"/>
     <use xlink:href="#PressStart2P-Regular-50" transform="translate(599.999908 0)"/>
     <use xlink:href="#PressStart2P-Regular-20" transform="translate(699.999893 0)"/>
     <use xlink:href="#PressStart2P-Regular-45" transform="translate(799.999878 0)"/>
     <use xlink:href="#PressStart2P-Regular-20" transform="translate(899.999863 0)"/>
     <use xlink:href="#PressStart2P-Regular-52" transform="translate(999.999847 0)"/>
    </g>
   </g>
  </g>
 </g>
</svg>
